<svg width="74" height="74" viewBox="0 0 74 74" fill="none" xmlns="http://www.w3.org/2000/svg">
<path d="M36.9944 38.2801C34.2585 38.2831 31.5831 37.4745 29.3068 35.9566C27.0305 34.4388 25.2555 32.2799 24.2065 29.753C23.1574 27.2262 22.8814 24.445 23.4133 21.7612C23.9453 19.0775 25.2613 16.6118 27.1948 14.6761C29.1284 12.7405 31.5926 11.4218 34.2758 10.887C36.959 10.3521 39.7405 10.6251 42.2685 11.6714C44.7964 12.7177 46.9573 14.4904 48.4776 16.765C49.9979 19.0397 50.8094 21.7142 50.8094 24.4501C50.8055 28.1142 49.3492 31.6274 46.7596 34.2197C44.1701 36.8121 40.6585 38.2722 36.9944 38.2801ZM36.9944 15.1351C35.1478 15.1321 33.3419 15.6772 31.8053 16.7013C30.2687 17.7253 29.0705 19.1823 28.3625 20.8877C27.6545 22.5932 27.4685 24.4704 27.828 26.2816C28.1875 28.0929 29.0764 29.7567 30.3821 31.0624C31.6879 32.3681 33.3517 33.257 35.1629 33.6166C36.9742 33.9761 38.8513 33.7901 40.5568 33.082C42.2622 32.374 43.7192 31.1758 44.7433 29.6392C45.7673 28.1026 46.3124 26.2967 46.3094 24.4501C46.3094 21.9796 45.328 19.6103 43.5811 17.8634C41.8342 16.1165 39.4649 15.1351 36.9944 15.1351Z" fill="#CD2532"/>
<path d="M36.9943 73.9498C28.7144 73.942 20.6762 71.1587 14.1643 66.0448C13.9211 65.8519 13.7198 65.6114 13.5728 65.338C13.4257 65.0646 13.3361 64.7641 13.3093 64.4548C13.3093 64.2148 13.3093 63.9898 13.3093 63.7498C13.3093 60.6375 13.9223 57.5556 15.1134 54.6802C16.3044 51.8048 18.0501 49.1921 20.2509 46.9914C22.4516 44.7906 25.0643 43.0449 27.9397 41.8539C30.8151 40.6628 33.897 40.0498 37.0093 40.0498C40.1217 40.0498 43.2035 40.6628 46.0789 41.8539C48.9543 43.0449 51.567 44.7906 53.7678 46.9914C55.9685 49.1921 57.7142 51.8048 58.9053 54.6802C60.0963 57.5556 60.7093 60.6375 60.7093 63.7498C60.7093 63.9898 60.7093 64.2148 60.7093 64.4548C60.6826 64.7641 60.5929 65.0646 60.4459 65.338C60.2989 65.6114 60.0976 65.8519 59.8543 66.0448C53.3344 71.1651 45.2845 73.9487 36.9943 73.9498ZM17.8093 63.1648C23.3729 67.2471 30.0937 69.4483 36.9943 69.4483C43.895 69.4483 50.6157 67.2471 56.1793 63.1648C55.9833 58.2079 53.8762 53.5193 50.2998 50.0815C46.7234 46.6437 41.9551 44.7236 36.9943 44.7236C32.0335 44.7236 27.2653 46.6437 23.6889 50.0815C20.1124 53.5193 18.0054 58.2079 17.8093 63.1648Z" fill="#CD2532"/>
<path d="M36.9943 73.95C28.2497 73.9545 19.7866 70.8597 13.1078 65.2151C6.42903 59.5705 1.96696 51.7415 0.51403 43.1185C-0.938903 34.4955 0.711342 25.6366 5.17169 18.1151C9.63203 10.5936 16.6138 4.89642 24.877 2.03523C33.1402 -0.825951 42.1501 -0.665894 50.3065 2.48698C58.4629 5.63984 65.2379 11.5815 69.4283 19.2566C73.6186 26.9318 74.9532 35.8437 73.1949 44.4096C71.4366 52.9756 66.6993 60.6412 59.8243 66.045C53.3124 71.1589 45.2742 73.9422 36.9943 73.95ZM36.9943 4.53C30.2466 4.53031 23.6669 6.63443 18.1711 10.5494C12.6753 14.4645 8.53693 19.9956 6.33196 26.3728C4.127 32.75 3.9652 39.6561 5.8691 46.1296C7.773 52.6031 11.6479 58.3219 16.9543 62.49C21.7416 66.2471 27.4888 68.5828 33.5398 69.2304C39.5909 69.878 45.7021 68.8116 51.1762 66.1528C56.6503 63.4939 61.2666 59.3498 64.4985 54.1933C67.7304 49.0368 69.4477 43.0756 69.4543 36.99C69.4424 28.3847 66.0187 20.1353 59.9338 14.0505C53.849 7.96561 45.5995 4.5419 36.9943 4.53Z" fill="#CD2532"/>
</svg>
