<svg width="64" height="64" viewBox="0 0 64 64" fill="none" xmlns="http://www.w3.org/2000/svg">
<path d="M5.33301 58.667L58.6663 58.667" stroke="#CD2532" stroke-width="1.5" stroke-linecap="round" stroke-linejoin="round"/>
<path d="M37.333 10.667H26.6663C22.2539 10.667 21.333 11.5879 21.333 16.0003V58.667H42.6663V16.0003C42.6663 11.5879 41.7455 10.667 37.333 10.667Z" stroke="#CD2532" stroke-width="1.5" stroke-linejoin="round"/>
<path d="M21.3333 34.667H13.3333C8.92089 34.667 8 35.5879 8 40.0003V58.667H21.3333V34.667Z" stroke="#CD2532" stroke-width="1.5" stroke-linejoin="round"/>
<path d="M50.667 34.667H42.667V58.667H56.0003V40.0003C56.0003 35.5879 55.0794 34.667 50.667 34.667Z" stroke="#CD2532" stroke-width="1.5" stroke-linejoin="round"/>
<path d="M32 10.6663L32 5.33301" stroke="#CD2532" stroke-width="1.5" stroke-linecap="round" stroke-linejoin="round"/>
<path d="M32 58.6663L32 53.333" stroke="#CD2532" stroke-width="1.5" stroke-linecap="round" stroke-linejoin="round"/>
<path d="M29.333 39.9997H34.6663M29.333 30.6663H34.6663M29.333 21.333L34.6663 21.333" stroke="#CD2532" stroke-width="1.5" stroke-linecap="round" stroke-linejoin="round"/>
</svg>
