<svg width="64" height="64" viewBox="0 0 64 64" fill="none" xmlns="http://www.w3.org/2000/svg">
<path d="M40 6.66699V10.667C40 14.4382 40 16.3238 41.1716 17.4954C42.3431 18.667 44.2288 18.667 48 18.667H52" stroke="#CD2532" stroke-width="1.5" stroke-linecap="round" stroke-linejoin="round"/>
<path d="M10.667 42.6663V21.333C10.667 13.7905 10.667 10.0193 13.0101 7.67615C15.3533 5.33301 19.1245 5.33301 26.667 5.33301H37.7912C38.8812 5.33301 39.4262 5.33301 39.9162 5.536C40.4063 5.73898 40.7917 6.12436 41.5624 6.8951L51.7716 17.1042C52.5423 17.875 52.9277 18.2604 53.1307 18.7504C53.3337 19.2405 53.3337 19.7855 53.3337 20.8755V42.6663C53.3337 50.2088 53.3337 53.98 50.9905 56.3232C48.6474 58.6663 44.8761 58.6663 37.3337 58.6663H26.667C19.1245 58.6663 15.3533 58.6663 13.0101 56.3232C10.667 53.98 10.667 50.2088 10.667 42.6663Z" stroke="#CD2532" stroke-width="1.5" stroke-linecap="round" stroke-linejoin="round"/>
<path d="M21.333 29.333H42.6663M21.333 37.333H42.6663M21.333 45.333H32.4552" stroke="#CD2532" stroke-width="1.5" stroke-linecap="round" stroke-linejoin="round"/>
</svg>
