<svg width="64" height="64" viewBox="0 0 64 64" fill="none" xmlns="http://www.w3.org/2000/svg">
<path d="M31.9997 58.6663C17.2721 58.6663 5.33301 46.7273 5.33301 31.9997C5.33301 24.5529 8.38542 17.8191 13.3073 12.9811M31.9997 58.6663C29.4316 56.7633 29.8416 54.5478 31.1299 52.3323C33.1106 48.9262 33.1106 48.9262 33.1106 44.3847C33.1106 39.8433 35.8092 37.714 45.333 39.6187C49.6123 40.4746 52.7306 34.562 58.2858 36.5144M31.9997 58.6663C45.1884 58.6663 56.141 49.0918 58.2858 36.5144M58.2858 36.5144C58.536 35.0469 58.6663 33.5385 58.6663 31.9997C58.6663 18.9825 49.3394 8.1438 37.0038 5.80178M37.0038 5.80178C38.3654 8.30897 37.8172 11.2944 34.9403 12.4343C30.2473 14.2938 33.6074 17.7155 29.6089 19.8279C26.9432 21.2363 22.9447 20.8837 18.9462 16.6588C16.8401 14.4334 15.5721 13.2201 13.3073 12.9811M37.0038 5.80178C35.3829 5.49404 33.7101 5.33301 31.9997 5.33301C24.7189 5.33301 18.1195 8.25089 13.3073 12.9811" stroke="#CD2532" stroke-width="1.5" stroke-linejoin="round"/>
</svg>
