<svg width="223" height="223" viewBox="0 0 223 223" fill="none" xmlns="http://www.w3.org/2000/svg">
<path d="M87.3292 87.3711H50.6357C47.083 87.3711 44.2031 90.2514 44.2031 93.8037C44.2031 97.356 47.0834 100.236 50.6357 100.236H87.3292C90.882 100.236 93.7618 97.3564 93.7618 93.8037C93.7618 90.2509 90.882 87.3711 87.3292 87.3711Z" fill="white"/>
<path d="M87.3292 65.5996H50.6357C47.083 65.5996 44.2031 68.4799 44.2031 72.0322C44.2031 75.585 47.0834 78.4648 50.6357 78.4648H87.3292C90.882 78.4648 93.7618 75.5845 93.7618 72.0322C93.7618 68.4794 90.882 65.5996 87.3292 65.5996Z" fill="white"/>
<path d="M87.3292 43.8291H50.6357C47.083 43.8291 44.2031 46.7094 44.2031 50.2617C44.2031 53.814 47.0834 56.6943 50.6357 56.6943H87.3292C90.882 56.6943 93.7618 53.814 93.7618 50.2617C93.7618 46.7094 90.882 43.8291 87.3292 43.8291Z" fill="white"/>
<path d="M171.73 87.3711H135.037C131.484 87.3711 128.604 90.2514 128.604 93.8037C128.604 97.356 131.485 100.236 135.037 100.236H171.731C175.283 100.236 178.163 97.356 178.163 93.8037C178.163 90.2514 175.283 87.3711 171.73 87.3711Z" fill="white"/>
<path d="M171.73 65.5996H135.037C131.484 65.5996 128.604 68.4799 128.604 72.0322C128.604 75.585 131.485 78.4648 135.037 78.4648H171.731C175.283 78.4648 178.163 75.5845 178.163 72.0322C178.163 68.4794 175.283 65.5996 171.73 65.5996Z" fill="white"/>
<path d="M171.73 43.8291H135.037C131.484 43.8291 128.604 46.7094 128.604 50.2617C128.604 53.814 131.485 56.6943 135.037 56.6943H171.731C175.283 56.6943 178.163 53.814 178.163 50.2617C178.163 46.7094 175.283 43.8291 171.73 43.8291Z" fill="white"/>
<path d="M216.567 30.72H202.017V16.6562C202.017 13.1035 199.137 10.2236 195.584 10.2236H132.21C123.78 10.2236 116.224 14.0425 111.183 20.0413C106.142 14.0429 98.586 10.2236 90.156 10.2236H26.7818C23.229 10.2236 20.3492 13.1039 20.3492 16.6562V30.72H6.43259C2.88027 30.72 0 33.6003 0 37.1526V157.333C0 160.885 2.88027 163.766 6.43259 163.766H80.8963V206.344C80.8963 209.897 83.7766 212.777 87.3289 212.777H135.037C138.59 212.777 141.47 209.897 141.47 206.344V163.766H216.567C220.12 163.766 223 160.885 223 157.333V37.1526C223 33.6003 220.12 30.72 216.567 30.72ZM117.616 37.6827C117.616 29.6355 124.163 23.0888 132.21 23.0888H189.151V121.589H131.918C126.674 121.589 121.772 123.082 117.616 125.666V37.6827ZM33.2144 23.0888H90.156C98.2032 23.0888 104.75 29.636 104.75 37.6827V125.666C100.594 123.083 95.6918 121.589 90.4483 121.589H33.2144V23.0888ZM12.8652 150.9V43.5852H20.3492V128.022C20.3492 131.574 23.2295 134.454 26.7818 134.454H90.4487C98.3347 134.454 104.75 140.87 104.75 148.756V150.9H87.3289H12.8652ZM128.604 199.911H93.7615V163.766H128.604V199.911ZM210.135 150.9H135.037H117.616V148.756C117.616 140.87 124.031 134.454 131.917 134.454H195.584C199.137 134.454 202.017 131.574 202.017 128.022V43.5852H210.135V150.9Z" fill="white"/>
</svg>
