<svg width="64" height="64" viewBox="0 0 64 64" fill="none" xmlns="http://www.w3.org/2000/svg">
<path d="M46.8313 24.5927L45.4278 27.0664C44.1077 29.3931 43.4477 30.5564 42.01 30.658C40.5723 30.7596 39.9629 29.928 38.7441 28.2647C37.3836 26.4081 36.522 24.2264 36.2166 21.9451C35.9313 19.8137 35.7887 18.748 35.4434 18.2247C34.8923 17.3895 33.7851 16.93 32.9574 16.4437C30.7775 15.163 29.6875 14.5226 29.4013 13.4356C29.115 12.3486 29.7443 11.2394 31.0029 9.02116C32.2615 6.80287 32.8908 5.69372 33.959 5.40246C35.0272 5.1112 36.1172 5.75156 38.2971 7.03229C39.1248 7.51858 40.0695 8.2646 41.0559 8.33264C41.6738 8.37527 42.6521 7.96812 44.6087 7.15382C46.7029 6.28228 48.9904 5.95073 51.2507 6.22137C53.2757 6.46384 54.2882 6.58508 54.9206 7.90284C55.5529 9.22061 54.8929 10.384 53.5728 12.7107L52.171 15.1813M46.8313 24.5927L47.9892 25.273C50.5431 26.7734 53.8089 25.883 55.2834 23.2841C56.7579 20.6852 55.8829 17.362 53.3289 15.8616L52.171 15.1813M46.8313 24.5927L52.171 15.1813" stroke="#CD2532" stroke-width="1.5"/>
<path d="M18.6667 34.6663C18.6667 37.6119 16.2789 39.9997 13.3333 39.9997C10.3878 39.9997 8 37.6119 8 34.6663C8 31.7208 10.3878 29.333 13.3333 29.333C16.2789 29.333 18.6667 31.7208 18.6667 34.6663Z" stroke="#CD2532" stroke-width="1.5"/>
<path d="M16 32.0003L34.6667 18.667" stroke="#CD2532" stroke-width="1.5" stroke-linejoin="round"/>
<path d="M18.667 58.667H37.3337" stroke="#CD2532" stroke-width="1.5" stroke-linecap="round" stroke-linejoin="round"/>
<path d="M16 40L29.3333 58.6667" stroke="#CD2532" stroke-width="1.5" stroke-linecap="round" stroke-linejoin="round"/>
</svg>
