<svg width="65" height="65" viewBox="0 0 65 65" fill="none" xmlns="http://www.w3.org/2000/svg">
<path d="M25.6753 53.8333H39.3243M16.1211 0.5H48.8786C52.7007 0.5 54.6119 0.5 56.0717 1.27508C57.3557 1.95682 58.3999 3.04468 59.054 4.38274C59.7979 5.90388 59.7979 7.8952 59.7979 11.8778V31.7889C59.7979 35.7715 59.7979 37.7629 59.054 39.284C58.3999 40.622 57.3557 41.71 56.0717 42.3916C54.6119 43.1667 52.7007 43.1667 48.8786 43.1667H16.1211C12.2991 43.1667 10.388 43.1667 8.92819 42.3916C7.64406 41.71 6.60005 40.622 5.94575 39.284C5.20195 37.7629 5.20195 35.7715 5.20195 31.7889V11.8778C5.20195 7.8952 5.20195 5.90388 5.94575 4.38274C6.60005 3.04468 7.64406 1.95682 8.92819 1.27508C10.388 0.5 12.2991 0.5 16.1211 0.5ZM7.21125 64.5H57.7887C60.7137 64.5 62.1762 64.5 63.0569 63.8582C63.826 63.2975 64.3399 62.4317 64.4771 61.4643C64.634 60.356 63.9799 58.9932 62.672 56.2671L60.9126 52.601C59.2693 49.1763 58.4476 47.4639 57.2219 46.2127C56.1379 45.1066 54.8313 44.2653 53.3968 43.7498C51.775 43.1667 49.9375 43.1667 46.2632 43.1667H18.7368C15.0623 43.1667 13.225 43.1667 11.603 43.7498C10.1685 44.2653 8.86203 45.1066 7.77799 46.2127C6.55217 47.4639 5.7305 49.1763 4.0872 52.601L2.32805 56.2671C1.01992 58.9932 0.365864 60.356 0.522964 61.4643C0.660137 62.4317 1.17375 63.2975 1.94287 63.8582C2.82371 64.5 4.2862 64.5 7.21125 64.5Z" stroke="#CD2532" stroke-linecap="round" stroke-linejoin="round"/>
</svg>
