<svg width="64" height="64" viewBox="0 0 64 64" fill="none" xmlns="http://www.w3.org/2000/svg">
<path d="M54.6663 45.1425V26.6663C54.6663 16.6097 54.6663 11.5814 51.5421 8.4572C48.418 5.33301 43.3896 5.33301 33.333 5.33301H30.6663C20.6097 5.33301 15.5814 5.33301 12.4572 8.4572C9.33301 11.5814 9.33301 16.6097 9.33301 26.6663V51.9997" stroke="#CD2532" stroke-width="1.5" stroke-linecap="round"/>
<path d="M54.6663 45.333H15.9997C12.3178 45.333 9.33301 48.3178 9.33301 51.9997C9.33301 55.6816 12.3178 58.6663 15.9997 58.6663H54.6663" stroke="#CD2532" stroke-width="1.5" stroke-linecap="round"/>
<path d="M54.6667 45.333C50.9848 45.333 48 48.3178 48 51.9997C48 55.6816 50.9848 58.6663 54.6667 58.6663" stroke="#CD2532" stroke-width="1.5" stroke-linecap="round"/>
<path d="M21.333 19.6628C24.3966 17.3462 28.0553 16 31.9852 16C35.9274 16 39.5969 17.3547 42.6663 19.6847M37.7977 25.9144C36.0481 24.9004 34.0741 24.3298 31.9852 24.3298C29.9068 24.3298 27.9421 24.8946 26.1991 25.8992M31.9997 32H32.0166" stroke="#CD2532" stroke-width="1.5" stroke-linecap="round"/>
</svg>
