<svg width="64" height="64" viewBox="0 0 64 64" fill="none" xmlns="http://www.w3.org/2000/svg">
<path d="M21.333 27.1108L32.3283 16.1155C35.3279 13.1159 36.8277 11.6161 38.4829 10.4081C41.879 7.92954 45.8179 6.298 49.9718 5.64921C51.9964 5.33301 54.1174 5.33301 58.3596 5.33301C58.5813 5.33301 58.6663 5.43465 58.6663 5.63979C58.6663 9.88192 58.6663 12.003 58.3501 14.0276C57.7014 18.1815 56.0698 22.1204 53.5913 25.5164C52.3833 27.1716 50.8835 28.6714 47.8838 31.6711L36.8886 42.6663" stroke="#CD2532" stroke-width="1.5" stroke-linecap="round" stroke-linejoin="round"/>
<path d="M27.5756 21.5954C23.0345 21.5954 17.3271 20.6334 13.0778 22.3935C9.96424 23.6832 7.67312 26.6694 5.33301 29.0096L14.1489 32.7878C16.4852 33.7891 15.057 36.7374 14.6702 38.6712C14.2393 40.8261 14.2633 40.9055 15.8172 42.4595L21.5399 48.1821C23.0938 49.736 23.1732 49.7601 25.3281 49.3291C27.262 48.9423 30.2103 47.5141 31.2115 49.8504L34.9898 58.6663C37.3299 56.3262 40.3162 54.0351 41.6058 50.9215C43.3659 46.6723 42.404 40.9648 42.404 36.4238" stroke="#CD2532" stroke-width="1.5" stroke-linejoin="round"/>
<path d="M49.4997 15.56C49.7926 15.2671 49.7926 14.7922 49.4997 14.4993C49.2068 14.2064 48.7319 14.2064 48.439 14.4993L48.9694 15.0297L49.4997 15.56ZM43.4693 19.469C43.1765 19.7619 43.1765 20.2368 43.4693 20.5297C43.7622 20.8226 44.2371 20.8226 44.53 20.5297L43.9997 19.9993L43.4693 19.469ZM48.9694 15.0297L48.439 14.4993L43.4693 19.469L43.9997 19.9993L44.53 20.5297L49.4997 15.56L48.9694 15.0297ZM37.333 10.666L37.3108 11.4157C42.3053 11.5638 46.029 13.0838 48.5404 15.6576C51.0546 18.2344 52.4431 21.9587 52.5833 26.6883L53.333 26.666L54.0827 26.6438C53.9345 21.6495 52.4594 17.5262 49.614 14.6101C46.7657 11.691 42.6336 10.0729 37.3552 9.91635L37.333 10.666Z" fill="#CD2532"/>
<path d="M31.9997 53.333L29.333 55.9997" stroke="#CD2532" stroke-width="1.5" stroke-linecap="round" stroke-linejoin="round"/>
<path d="M10.6667 32L8 34.6667" stroke="#CD2532" stroke-width="1.5" stroke-linecap="round" stroke-linejoin="round"/>
</svg>
